<svg xmlns="http://www.w3.org/2000/svg"
     xmlns:xlink="http://www.w3.org/1999/xlink" version="1.1" width="256"
     height="256" viewBox="0 0 100 100">


    <defs>
        <linearGradient id="Gradient_2" gradientUnits="userSpaceOnUse" x1="50"
                        y1="50" x2="50" y2="0" spreadMethod="pad">
            <stop offset="0%" stop-color="#FFFFFF" stop-opacity="0.7"/>
            <stop offset="100%" stop-color="#FFFFFF" stop-opacity="0.1"/>
        </linearGradient>
        <linearGradient id="Gradient_3" gradientUnits="userSpaceOnUse" x1="50"
                        y1="75" x2="50" y2="0" spreadMethod="pad">
            <stop offset="0%" stop-color="#FFFFFF" stop-opacity="0.1"/>
            <stop offset="100%" stop-color="#FFFFFF" stop-opacity="0.7"/>
        </linearGradient>
        <g id="background">
            <path fill="url(#background-gradient)" stroke="none"
                  d=" M 93.35 75 L 93.35 25 50 0 6.65 25 6.65 75 50 100 93.35 75 Z"/>
        </g>
        <mask id="mask">
            <path fill="#FFFFFF" stroke="none"
                  d=" M 93.35 75 L 93.35 25 50 0 6.65 25 6.65 75 50 100 93.35 75 Z"/>
        </mask>
        <g id="gloss-top">
            <path fill="url(#Gradient_2)" stroke="none"
                  d=" M 93.35 25.05 L 93.35 25 50 0 6.65 25 6.65 25.05 50 50 93.35 25.05 Z"/>
        </g>
        <g id="gloss-right">
            <path fill="url(#Gradient_3)" stroke="none"
                  d=" M 93.35 75 L 93.35 25 50 0 6.65 25 93.35 75 Z"/>
        </g>
        <g id="gloss-left">
            <path fill="url(#Gradient_3)" stroke="none"
                  d=" M 6.65 25 L 6.65 75 93.35 25 50 0 6.65 25 Z"/>
        </g>

        <linearGradient id="background-gradient" x1="0" y1="0" y2="1" x2="0">
            <stop stop-color="#41ffd0" offset="0%"/>
            <stop stop-color="#e5ff9b" offset="100%"/>
        </linearGradient>


        <g transform="scale(3.115264945592432) translate(0.10000008344650269 3.549999237060547)"
           id="picture">
            <path d="M7 19c-1.7 0-3 1.3-3 3s1.3 3 3 3 3-1.3 3-3-1.3-3-3-3zm0 4c-.6 0-1-.4-1-1s.4-1 1-1 1 .4 1 1-.4 1-1 1zm10-4c-1.7 0-3 1.3-3 3s1.3 3 3 3 3-1.3 3-3-1.3-3-3-3zm0 4c-.6 0-1-.4-1-1s.4-1 1-1 1 .4 1 1-.4 1-1 1zM31 0h-6c-.4 0-.8.3-1 .7L19.3 16H4.8L2 4.8c-.2-.6-.7-.9-1.2-.8-.6.2-.9.7-.8 1.2l3 12c.1.5.5.8 1 .8h16c.4 0 .8-.3 1-.7L25.7 2H31c.6 0 1-.4 1-1s-.4-1-1-1z M8.6 11.6c.9.6 1.9 1.3 2.7 2.1.2.2.5.3.7.3s.5-.1.7-.3c.8-.8 1.8-1.5 2.7-2.1 2.3-1.5 4.6-3 4.6-6.6 0-2.8-2-5-4.5-5-1.4 0-2.7.7-3.5 1.9C11.2.7 9.9 0 8.5 0 6 0 4 2.2 4 5c0 3.6 2.3 5.1 4.6 6.6zM8.5 2C9.9 2 11 3.3 11 5c0 .6.4 1 1 1s1-.4 1-1c0-1.7 1.1-3 2.5-3S18 3.3 18 5c0 2.5-1.6 3.6-3.7 5-.8.5-1.6 1.1-2.3 1.7-.8-.7-1.5-1.2-2.3-1.7C7.6 8.6 6 7.5 6 5c0-1.7 1.1-3 2.5-3z"/>
        </g>

        <linearGradient id="picture-gradient" x1="0" y1="0" y2="1" x2="0">
            <stop stop-color="#7b2cf6" offset="0%"/>
            <stop stop-color="#ff007f" offset="100%"/>
        </linearGradient>

    </defs>


    <use xlink:href="#background" fill="url(#background-gradient)"/>


    <g mask="url(#mask)">
        <g transform="
				        translate(
                                50 50
)
                            translate(0 5)  scale(0.525) scale(-1 1)
                            translate(
                                -50 -50
)">
            <use xlink:href="#picture" fill="url(#picture-gradient)"/>
        </g>
    </g>


    <use xlink:href="#gloss-top" opacity="1"/>


</svg>
